<mxfile host="app.diagrams.net" modified="2023-03-22T02:48:21.432Z" agent="5.0 (Windows NT 10.0; Win64; x64) AppleWebKit/537.36 (KHTML, like Gecko) Chrome/111.0.0.0 Safari/537.36" etag="FSeYw0pPorvVLQPK6dGf" version="21.0.10" type="github">
  <diagram name="Página-1" id="hsQvaujafNWDHsW4Dgyy">
    <mxGraphModel dx="980" dy="779" grid="0" gridSize="10" guides="1" tooltips="1" connect="1" arrows="1" fold="1" page="0" pageScale="1" pageWidth="827" pageHeight="1169" math="0" shadow="0">
      <root>
        <mxCell id="0" />
        <mxCell id="1" parent="0" />
        <mxCell id="4x1UkNs5kgWuN8vM1viX-1" value="Actor" style="shape=umlActor;verticalLabelPosition=bottom;verticalAlign=top;html=1;outlineConnect=0;fontSize=16;" vertex="1" parent="1">
          <mxGeometry x="-3" y="133" width="30" height="60" as="geometry" />
        </mxCell>
        <mxCell id="4x1UkNs5kgWuN8vM1viX-3" value="Retirar Dinero" style="ellipse;whiteSpace=wrap;html=1;fontSize=16;" vertex="1" parent="1">
          <mxGeometry x="139" y="37" width="120" height="80" as="geometry" />
        </mxCell>
        <mxCell id="4x1UkNs5kgWuN8vM1viX-4" value="Hacer Transferencia" style="ellipse;whiteSpace=wrap;html=1;fontSize=16;" vertex="1" parent="1">
          <mxGeometry x="136" y="145" width="120" height="80" as="geometry" />
        </mxCell>
        <mxCell id="4x1UkNs5kgWuN8vM1viX-5" value="Ingresar Dinero" style="ellipse;whiteSpace=wrap;html=1;fontSize=16;" vertex="1" parent="1">
          <mxGeometry x="136" y="246" width="120" height="80" as="geometry" />
        </mxCell>
        <mxCell id="4x1UkNs5kgWuN8vM1viX-6" value="" style="endArrow=none;html=1;rounded=0;fontSize=12;startSize=8;endSize=8;curved=1;entryX=0;entryY=0.5;entryDx=0;entryDy=0;" edge="1" parent="1" target="4x1UkNs5kgWuN8vM1viX-3">
          <mxGeometry width="50" height="50" relative="1" as="geometry">
            <mxPoint x="31" y="163" as="sourcePoint" />
            <mxPoint x="223" y="138" as="targetPoint" />
          </mxGeometry>
        </mxCell>
        <mxCell id="4x1UkNs5kgWuN8vM1viX-7" value="" style="endArrow=none;html=1;rounded=0;fontSize=12;startSize=8;endSize=8;curved=1;" edge="1" parent="1" source="4x1UkNs5kgWuN8vM1viX-1" target="4x1UkNs5kgWuN8vM1viX-4">
          <mxGeometry width="50" height="50" relative="1" as="geometry">
            <mxPoint x="173" y="188" as="sourcePoint" />
            <mxPoint x="223" y="138" as="targetPoint" />
          </mxGeometry>
        </mxCell>
        <mxCell id="4x1UkNs5kgWuN8vM1viX-8" value="" style="endArrow=none;html=1;rounded=0;fontSize=12;startSize=8;endSize=8;curved=1;entryX=0;entryY=0.5;entryDx=0;entryDy=0;" edge="1" parent="1" target="4x1UkNs5kgWuN8vM1viX-5">
          <mxGeometry width="50" height="50" relative="1" as="geometry">
            <mxPoint x="27" y="161" as="sourcePoint" />
            <mxPoint x="223" y="138" as="targetPoint" />
          </mxGeometry>
        </mxCell>
        <mxCell id="4x1UkNs5kgWuN8vM1viX-9" value="R1,R2,R3" style="verticalLabelPosition=bottom;verticalAlign=top;html=1;shape=card;whiteSpace=wrap;size=20;arcSize=12;fontSize=16;" vertex="1" parent="1">
          <mxGeometry x="286" y="11" width="63" height="44" as="geometry" />
        </mxCell>
        <mxCell id="4x1UkNs5kgWuN8vM1viX-10" value="R1,R4" style="verticalLabelPosition=bottom;verticalAlign=top;html=1;shape=card;whiteSpace=wrap;size=20;arcSize=12;fontSize=16;" vertex="1" parent="1">
          <mxGeometry x="288" y="129" width="63" height="44" as="geometry" />
        </mxCell>
        <mxCell id="4x1UkNs5kgWuN8vM1viX-11" value="R1,R5" style="verticalLabelPosition=bottom;verticalAlign=top;html=1;shape=card;whiteSpace=wrap;size=20;arcSize=12;fontSize=16;" vertex="1" parent="1">
          <mxGeometry x="296" y="233" width="63" height="44" as="geometry" />
        </mxCell>
        <mxCell id="4x1UkNs5kgWuN8vM1viX-12" value="" style="endArrow=none;dashed=1;html=1;dashPattern=1 3;strokeWidth=2;rounded=0;fontSize=12;startSize=8;endSize=8;curved=1;exitX=1;exitY=0;exitDx=0;exitDy=0;" edge="1" parent="1" source="4x1UkNs5kgWuN8vM1viX-3" target="4x1UkNs5kgWuN8vM1viX-9">
          <mxGeometry width="50" height="50" relative="1" as="geometry">
            <mxPoint x="98" y="188" as="sourcePoint" />
            <mxPoint x="148" y="138" as="targetPoint" />
          </mxGeometry>
        </mxCell>
        <mxCell id="4x1UkNs5kgWuN8vM1viX-13" value="" style="endArrow=none;dashed=1;html=1;dashPattern=1 3;strokeWidth=2;rounded=0;fontSize=12;startSize=8;endSize=8;curved=1;exitX=1;exitY=0.5;exitDx=0;exitDy=0;entryX=0;entryY=1;entryDx=0;entryDy=0;entryPerimeter=0;" edge="1" parent="1" source="4x1UkNs5kgWuN8vM1viX-5" target="4x1UkNs5kgWuN8vM1viX-11">
          <mxGeometry width="50" height="50" relative="1" as="geometry">
            <mxPoint x="251" y="59" as="sourcePoint" />
            <mxPoint x="296" y="50" as="targetPoint" />
          </mxGeometry>
        </mxCell>
        <mxCell id="4x1UkNs5kgWuN8vM1viX-14" value="" style="endArrow=none;dashed=1;html=1;dashPattern=1 3;strokeWidth=2;rounded=0;fontSize=12;startSize=8;endSize=8;curved=1;exitX=1;exitY=0.5;exitDx=0;exitDy=0;" edge="1" parent="1" source="4x1UkNs5kgWuN8vM1viX-4" target="4x1UkNs5kgWuN8vM1viX-10">
          <mxGeometry width="50" height="50" relative="1" as="geometry">
            <mxPoint x="261" y="69" as="sourcePoint" />
            <mxPoint x="306" y="60" as="targetPoint" />
          </mxGeometry>
        </mxCell>
        <mxCell id="4x1UkNs5kgWuN8vM1viX-17" value="DIAGRAMA DE CASOS DE USO - CAJERO AUTOMÁTICO" style="text;strokeColor=none;fillColor=none;html=1;align=center;verticalAlign=middle;whiteSpace=wrap;rounded=0;fontSize=16;" vertex="1" parent="1">
          <mxGeometry x="31" y="-44" width="301" height="30" as="geometry" />
        </mxCell>
        <mxCell id="4x1UkNs5kgWuN8vM1viX-18" value="DESCRIBIR LOS CASOS DE USO" style="text;strokeColor=none;fillColor=none;html=1;align=center;verticalAlign=middle;whiteSpace=wrap;rounded=0;fontSize=16;" vertex="1" parent="1">
          <mxGeometry x="104" y="344" width="268" height="30" as="geometry" />
        </mxCell>
        <mxCell id="4x1UkNs5kgWuN8vM1viX-19" value="C1-RETRIRA DINERO&lt;br&gt;Actor: Usuario&lt;br&gt;Descripción: El caso de uso comienza con la identifacación del cliente. El cliente usa el caso de uso para sacar dinero de su cuenta. El caso de uso le devuelve el dinero solicitado, podría darse el caso que no tenga salgo sufienciente o que ha excedido el límite diario." style="text;strokeColor=none;fillColor=none;html=1;align=center;verticalAlign=middle;whiteSpace=wrap;rounded=0;fontSize=16;" vertex="1" parent="1">
          <mxGeometry x="14" y="412" width="540" height="38" as="geometry" />
        </mxCell>
      </root>
    </mxGraphModel>
  </diagram>
</mxfile>
